<svg xmlns="http://www.w3.org/2000/svg" xmlns:xlink="http://www.w3.org/1999/xlink" viewBox="0 0 1024 1024"><defs><style>.cls-1{fill:none;}.cls-2{fill:#2b3990;}.cls-3{fill:#00aeef;}.cls-4{fill:#939598;}.cls-5{fill:#414042;}.cls-6{fill:#6d6e71;}.cls-7{fill:#a7a9ac;}.cls-8{fill:#fff;}.cls-9{clip-path:url(#clip-path);}.cls-10{fill:#2484c6;}</style><clipPath id="clip-path"><circle class="cls-1" cx="771.05" cy="154.81" r="18.26"/></clipPath></defs><title>tp_mini</title><g id="Layer_2" data-name="Layer 2"><polygon class="cls-2" points="73.7 978.6 189.19 345.99 301.27 694.14 259.67 978.6 73.7 978.6"/><polygon class="cls-2" points="953.41 978.6 837.93 345.99 725.84 694.14 767.45 978.6 953.41 978.6"/><path class="cls-3" d="M291.93,346,476.62,769.46c6.31,14.46,27.18,13.33,31.89-1.73l41.4-141.1L690,662.29l-85.7,250.08c-29.94,90.67-158.88,88.7-186-2.85L251.17,346Z"/><polygon class="cls-4" points="740.43 189.87 696.06 343.12 668.19 334.65 714.45 181.99 740.43 189.87"/><polygon class="cls-4" points="767.4 96.67 741.8 185.12 715.88 177.26 767.4 96.67"/><polygon class="cls-5" points="631.92 457.54 550.71 525.37 559.48 563.58 586.96 550.21 600.6 560.87 631.92 457.54"/><polygon class="cls-6" points="719.29 483.48 749.47 584.9 721.04 611.9 705.53 585.56 688.27 586.9 719.29 483.48"/><polygon class="cls-5" points="628.78 575.64 616.49 618.05 558.67 603.31 597.96 566.3 628.78 575.64"/><polygon class="cls-6" points="697.64 638.72 616.49 618.05 628.78 575.64 686.55 593.15 697.64 638.72"/><polygon class="cls-4" points="694.54 348.37 628.78 575.64 597.96 566.3 666.58 339.91 694.54 348.37"/><polygon class="cls-7" points="755.17 366.76 686.55 593.15 628.78 575.64 694.54 348.37 755.17 366.76"/><polygon class="cls-7" points="803.04 208.85 756.78 361.51 696.06 343.12 740.43 189.87 803.04 208.85"/><path class="cls-7" d="M814.66,59,804.47,204.12l-62.67-19,25.6-88.45,28.14-44C801.35,43.58,815.42,48.22,814.66,59Z"/><circle class="cls-8" cx="771.05" cy="154.81" r="23.24"/><g class="cls-9"><polygon class="cls-10" points="752.8 136.88 776.93 173.07 752.8 173.07 752.8 136.88"/><polygon class="cls-10" points="784.32 136.56 789.31 144.04 789.31 173.07 776.93 173.07 752.8 136.88 752.8 136.56 784.32 136.56"/><polygon class="cls-10" points="789.31 144.04 784.32 136.56 789.31 136.56 789.31 144.04"/></g><line class="cls-1" x1="741.8" y1="185.12" x2="740.43" y2="189.87"/><line class="cls-1" x1="696.06" y1="343.12" x2="694.54" y2="348.37"/></g></svg>