<svg xmlns="http://www.w3.org/2000/svg" xmlns:xlink="http://www.w3.org/1999/xlink" viewBox="0 0 1024 1024"><defs><style>.cls-1{fill:none;}.cls-2{fill:#2b3990;}.cls-3{fill:#00aeef;}.cls-4{fill:#939598;}.cls-5{fill:#414042;}.cls-6{fill:#6d6e71;}.cls-7{fill:#a7a9ac;}.cls-8{fill:#fff;}.cls-9{clip-path:url(#clip-path);}.cls-10{fill:#2484c6;}.cls-11{font-size:81.55px;fill:#231f20;font-family:LIBRARY3AM, "LIBRARY 3 AM";}</style><clipPath id="clip-path"><circle class="cls-1" cx="677.9" cy="202.58" r="11.65"/></clipPath></defs><title>tp_full_black</title><g id="Layer_2" data-name="Layer 2"><polygon class="cls-2" points="232.82 728.35 306.53 324.59 378.07 546.8 351.51 728.35 232.82 728.35"/><polygon class="cls-2" points="794.29 728.35 720.59 324.59 649.05 546.8 675.61 728.35 794.29 728.35"/><path class="cls-3" d="M372.11,324.59,490,594.87a10.88,10.88,0,0,0,20.36-1.1l26.42-90.06,89.43,22.76-54.7,159.61C552.38,744,470.08,742.7,452.75,684.27L346.09,324.59Z"/><polygon class="cls-4" points="658.36 224.95 630.04 322.76 612.25 317.36 641.78 219.92 658.36 224.95"/><polygon class="cls-4" points="675.57 165.47 659.24 221.92 642.69 216.9 675.57 165.47"/><polygon class="cls-5" points="589.1 395.79 537.27 439.08 542.87 463.47 560.4 454.93 569.11 461.74 589.1 395.79"/><polygon class="cls-6" points="644.87 412.35 664.13 477.08 645.98 494.31 636.09 477.5 625.07 478.35 644.87 412.35"/><polygon class="cls-5" points="587.1 471.17 579.26 498.24 542.35 488.83 567.43 465.2 587.1 471.17"/><polygon class="cls-6" points="631.05 511.43 579.26 498.24 587.1 471.17 623.97 482.34 631.05 511.43"/><polygon class="cls-4" points="629.07 326.11 587.1 471.17 567.43 465.2 611.23 320.71 629.07 326.11"/><polygon class="cls-7" points="667.77 337.85 623.97 482.34 587.1 471.17 629.07 326.11 667.77 337.85"/><polygon class="cls-7" points="698.32 237.06 668.79 334.5 630.04 322.76 658.36 224.95 698.32 237.06"/><path class="cls-7" d="M705.74,141.4,699.23,234l-40-12.12,16.34-56.45,18-28.1A6.63,6.63,0,0,1,705.74,141.4Z"/><circle class="cls-8" cx="677.9" cy="202.58" r="14.83"/><g class="cls-9"><polygon class="cls-10" points="666.25 191.13 681.65 214.23 666.25 214.23 666.25 191.13"/><polygon class="cls-10" points="686.37 190.92 689.56 195.7 689.56 214.23 681.65 214.23 666.25 191.13 666.25 190.92 686.37 190.92"/><polygon class="cls-10" points="689.56 195.7 686.37 190.92 689.56 190.92 689.56 195.7"/></g><line class="cls-1" x1="659.23" y1="221.92" x2="658.36" y2="224.95"/><line class="cls-1" x1="630.04" y1="322.76" x2="629.07" y2="326.11"/><text class="cls-11" transform="translate(197.58 832)">mathXplorer</text></g></svg>