<svg xmlns="http://www.w3.org/2000/svg" xmlns:xlink="http://www.w3.org/1999/xlink" viewBox="0 0 3649.22 900.65"><defs><style>.cls-1{fill:none;}.cls-2{fill:#2b3990;}.cls-3{fill:#00aeef;}.cls-4{fill:#939598;}.cls-5{fill:#414042;}.cls-6{fill:#6d6e71;}.cls-7{fill:#a7a9ac;}.cls-11,.cls-8{fill:#fff;}.cls-9{clip-path:url(#clip-path);}.cls-10{fill:#2484c6;}.cls-11{font-size:335.46px;font-family:LIBRARY3AM, "LIBRARY 3 AM";}</style><clipPath id="clip-path"><circle class="cls-1" cx="630.13" cy="203.83" r="11.65"/></clipPath></defs><title>tp_white_ls</title><g id="Layer_2" data-name="Layer 2"><polygon class="cls-2" points="185.05 729.61 258.76 325.85 330.3 548.05 303.74 729.61 185.05 729.61"/><polygon class="cls-2" points="746.52 729.61 672.82 325.85 601.28 548.05 627.83 729.61 746.52 729.61"/><path class="cls-3" d="M324.33,325.85,442.21,596.13a10.88,10.88,0,0,0,20.35-1.1L489,505l89.42,22.76-54.7,159.61C504.61,745.21,422.31,744,405,685.52L298.32,325.85Z"/><polygon class="cls-4" points="610.59 226.21 582.27 324.02 564.48 318.61 594 221.18 610.59 226.21"/><polygon class="cls-4" points="627.8 166.72 611.46 223.17 594.92 218.16 627.8 166.72"/><polygon class="cls-5" points="541.33 397.04 489.5 440.34 495.09 464.73 512.63 456.19 521.34 462.99 541.33 397.04"/><polygon class="cls-6" points="597.09 413.6 616.36 478.34 598.21 495.57 588.31 478.76 577.29 479.61 597.09 413.6"/><polygon class="cls-5" points="539.33 472.42 531.48 499.49 494.58 490.08 519.65 466.46 539.33 472.42"/><polygon class="cls-6" points="583.27 512.68 531.48 499.49 539.33 472.42 576.2 483.6 583.27 512.68"/><polygon class="cls-4" points="581.3 327.37 539.33 472.42 519.65 466.46 563.45 321.97 581.3 327.37"/><polygon class="cls-7" points="619.99 339.11 576.2 483.6 539.33 472.42 581.3 327.37 619.99 339.11"/><polygon class="cls-7" points="650.55 238.32 621.02 335.75 582.27 324.02 610.59 226.21 650.55 238.32"/><path class="cls-7" d="M658,142.65l-6.5,92.65-40-12.13,16.34-56.45,18-28.09A6.63,6.63,0,0,1,658,142.65Z"/><circle class="cls-8" cx="630.13" cy="203.83" r="14.83"/><g class="cls-9"><polygon class="cls-10" points="618.48 192.38 633.88 215.49 618.48 215.49 618.48 192.38"/><polygon class="cls-10" points="638.6 192.18 641.78 196.96 641.78 215.49 633.88 215.49 618.48 192.38 618.48 192.18 638.6 192.18"/><polygon class="cls-10" points="641.78 196.96 638.6 192.18 641.78 192.18 641.78 196.96"/></g><line class="cls-1" x1="611.46" y1="223.17" x2="610.59" y2="226.21"/><line class="cls-1" x1="582.27" y1="324.02" x2="581.3" y2="327.37"/><text class="cls-11" transform="translate(839.63 582.99)">mathXplorer</text></g></svg>